<?xml version="1.0" encoding="utf-8"?>
<!-- Generator: Adobe Illustrator 25.4.1, SVG Export Plug-In . SVG Version: 6.00 Build 0)  -->
<svg version="1.1" xmlns="http://www.w3.org/2000/svg" xmlns:xlink="http://www.w3.org/1999/xlink" x="0px" y="0px"
	 viewBox="0 0 575.8 209.5" style="enable-background:new 0 0 575.8 209.5;" xml:space="preserve">
<style type="text/css">
	.st0{fill:#FFFFFF;}
	.st1{fill:#54565B;}
	.st2{fill:#EE7624;}
</style>
<g id="Layer_2">
</g>
<g id="Logo">
	<g id="Naam_00000104676221216860064500000004193183385868350346_">
		<path class="st1" d="M103.1,121h10.8v58.6l32.2,0v7.4l-42.9,0V121z"/>
		<path class="st1" d="M197.9,165.5l-34.9,0c0,15.8,16.4,17.6,33.8,12.5l1.5,6.7c-3.1,1.3-22,6.2-34.1-0.3
			c-10.5-5.6-11.8-14.2-11.8-22.4c0-9.2,6.6-23.7,26-23.7C193.5,138.4,202.4,149.6,197.9,165.5z M189,158.5c0-2.3,0.3-6.7-1.9-9.3
			c-2.2-2.5-4.9-4.1-9.7-4.1c-5,0-7.9,1.6-10.5,4.2c-2.6,2.6-3.7,5.9-3.9,9.2L189,158.5z M158.9,180.8"/>
		<path class="st1" d="M257.1,155.2v31.6l-9.4,0v-7c-6.3,8.2-13.8,8-17.7,8.2c-12.6,0.6-19.8-6.4-19.8-15.4
			c0-12,10.7-16.5,22.6-16.5h14.8c0.2-5.1-0.6-12.7-15.3-12.1c-2.8,0.1-11.6,0.9-18,4.6v-8.3c11.4-3.3,17-3.2,19.7-3.2
			C239.4,137.3,257.1,137.8,257.1,155.2z M240,162.4h-5.8c-13.5,0.5-14.8,6.8-14.6,10.1c0.5,8.6,9,8.7,12.2,8.6
			c12.1-0.3,15.9-9.2,15.9-16.9v-1.8H240z"/>
		<path class="st1" d="M285.1,186.6v20.7h-10.5v-67.9h10v6.3c1.3-1.4,6-7.5,18-7.3c14.1,0.3,21.5,11.8,21.4,24.5
			c-0.1,12.1-6.4,19.1-15.7,23C300.7,189,289.4,187.9,285.1,186.6z M313.5,162.5c0,0,1.3-16.1-13.9-16.9c-7.9-0.4-14.2,6-14.4,6.5
			v27.2c3.1,1,8.1,1.4,12,1.1C298.9,180.3,313.5,179.9,313.5,162.5z"/>
		<path class="st2" d="M371.9,117.1l-0.9,6.7c-3.3-0.5-12.6-2.3-17.3,3c-3.2,3.6-2.6,12.5-2.6,12.5h16.1v7.2h-16.1v40.3h-10.6v-40.3
			h-9.4v-7.2h9.4c0,0-0.4-11.3,4.1-16.3c3.6-3.9,8.2-7.3,17.2-7.3C370.1,115.7,371.9,117.1,371.9,117.1z"/>
		<path class="st2" d="M398.2,138.4c21.2,0,27.8,14.5,27.8,24.5c0,10.4-6.4,24.8-27.8,24.8c-14.4,0-26.3-9.8-26.3-24.7
			C371.9,154.1,378.4,138.4,398.2,138.4z M399,145.5c-13.7,0-16.5,11.2-16.5,17.6c0,14.3,9.9,17.7,16.7,17.7c8.2,0,16.3-5,16.3-17.7
			C415.5,151.9,409,145.5,399,145.5z"/>
		<path class="st2" d="M470.2,146.6c-13.2-1-19.1,5.8-20.6,8.3v32H439v-47.5h10v8.8c2.6-4.2,6-11,21.2-9.3V146.6z"/>
		<path class="st2" d="M519.5,185.3c-7.4,3.1-41.2,8.7-43.4-21.1c-0.6-8.2,4.1-27.5,30.6-26c2.8,0.2,9,0.9,12.7,2.6l-1.6,6.9
			c-26-7.6-31.3,6.4-31.2,15.5c0.1,12.8,8.4,22,31.3,15.1L519.5,185.3z"/>
		<path class="st2" d="M573.3,165.4l-34.9,0c0,15.8,16.4,17.6,33.8,12.5l1.5,6.7c-3.1,1.3-22,6.2-34.1-0.3
			c-10.5-5.6-11.8-14.2-11.8-22.4c0-9.2,6.6-23.7,26-23.7C568.8,138.3,577.7,149.6,573.3,165.4z M564.3,158.4c0-2.3,0.3-6.7-1.9-9.3
			c-2.2-2.5-4.9-4.1-9.7-4.1c-5,0-7.9,1.6-10.5,4.2c-2.6,2.6-3.7,5.9-3.9,9.2L564.3,158.4z M534.2,180.7"/>
	</g>
	<path id="Boog_00000181052653693159476420000007121132089977379733_" class="st2" d="M2.1,186.9C27.1,99.6,133.4,8.8,311.1,2.8V1.6
		c-129.7,0-274.5,37-310.1,185L2.1,186.9z"/>
</g>
</svg>
